# xmcd CD database file
#
# Track frame offsets:
#	150
#	12082
#	22542
#	35235
#	48720
#	58645
#	68300
#	82017
#	95245
#	107550
#	123515
#	133970
#	145730
#	157482
#	167280
#	178252
#	196030
#
# Disc length: 2763 seconds
#
# Revision: 9
# Processed by: cddbd v1.4PL0 Copyright (c) Steve Scherf et al.
# Submitted via: CDex 1.50beta9
#
DISCID=e90ac911
DTITLE=J. Lipicnik, M. Lipicnik - Mojca in Kalicopko
DYEAR=1995
DGENRE=children
TTITLE0=Ole majole
TTITLE1=Cira cara
TTITLE2=Mezincek
TTITLE3=Nejko
TTITLE4=Pujsi
TTITLE5=Minika
TTITLE6=Kalicopkoigra
TTITLE7=Bonton
TTITLE8=Klobucek
TTITLE9=Na podstresju
TTITLE10=Pobalini
TTITLE11=Rici
TTITLE12=Zelencek
TTITLE13=Dolgcas
TTITLE14=Na potepu
TTITLE15=Kalicopko
TTITLE16=Mirne sanje
EXTD=YEAR: 1995
EXTT0=
EXTT1=
EXTT2=
EXTT3=
EXTT4=
EXTT5=
EXTT6=
EXTT7=
EXTT8=
EXTT9=
EXTT10=
EXTT11=
EXTT12=
EXTT13=
EXTT14=
EXTT15=
EXTT16=
PLAYORDER=
